<svg width="100" height="100" viewBox="0 0 100 100" xmlns="http://www.w3.org/2000/svg"><title>icon_d</title><g fill="none" fill-rule="evenodd"><path d="M100 50c0 27.614-22.386 50-50 50S0 77.614 0 50 22.386 0 50 0s50 22.386 50 50" fill="#006AA6"/><g fill="#FFF"><path d="M60.974 43.75c-2.698 0-4.887 2.176-4.887 4.86 0 2.682 2.189 4.859 4.887 4.859 2.7 0 4.888-2.177 4.888-4.86 0-2.683-2.189-4.859-4.888-4.859"/><path d="M69.666 55.839c0 .606-.03 1.204-.092 1.794-.639.45-1.41.728-2.254.728a3.93 3.93 0 0 1-.918-.12 10.785 10.785 0 0 1-4.29-2.587l-4.151 4.128a16.599 16.599 0 0 0 9.432 4.629c-3.022 5.318-8.752 8.923-15.322 8.923H34.476V49.615c12.023-1.594 22.5-8.027 29.414-17.254 1.526 1.053 2.805 2.268 3.7 3.57a17.296 17.296 0 0 1 2.076 8.23v11.678zM52.071 20.833h-23.46v58.334h23.46c12.957 0 23.46-10.446 23.46-23.328V44.16c0-12.883-10.5-23.328-23.46-23.328z"/></g><path d="M20.833 20.833h58.333v58.333H20.833z"/></g></svg>