<svg width="48" height="48" viewBox="0 0 48 48" xmlns="http://www.w3.org/2000/svg"><title>ic_comment_006aa6</title><g fill="#006AA6" fill-rule="evenodd"><path d="M42 24c0 4.963-4.038 9-9 9h-9c-.199 0-.395.06-.56.171l-7.443 5.027.003-4.197A1.001 1.001 0 0 0 15 33c-4.962 0-9-4.037-9-9v-5c0-4.963 4.038-9 9-9h18c4.962 0 9 4.037 9 9v5zM33 8H15C8.935 8 4 12.935 4 19v5c0 5.729 4.401 10.447 9.999 10.955l-.003 3.776c.004.95.78 1.722 1.73 1.722.328 0 .648-.1.961-.306L24.306 35H33c6.065 0 11-4.935 11-11v-5c0-6.065-4.935-11-11-11z"/><path d="M24 19.5a2 2 0 1 0-.001 3.999 2 2 0 0 0 0-3.999m8.063 0a2 2 0 1 0 0 3.999 2 2 0 0 0 0-3.999m-16.125 0a2 2 0 1 0 0 3.999 2 2 0 0 0 0-3.999"/></g></svg>