<svg id="圖層_1" data-name="圖層 1" xmlns="http://www.w3.org/2000/svg" viewBox="0 0 250 287.18"><defs><style>.cls-1{fill:none}.cls-2{fill:#00324e}.cls-3{opacity:.7}.cls-4{fill:#997e63}.cls-5,.cls-7{fill:#62c67d}.cls-6{fill:#397a5a}.cls-24,.cls-25,.cls-33,.cls-34,.cls-7{fill-rule:evenodd}.cls-8{fill:#3a7a55}.cls-9{opacity:.25}.cls-10,.cls-24{fill:#fff}.cls-11{fill:#72c28b}.cls-12{fill:#69b27e}.cls-13{fill:#ffd15a}.cls-14{fill:#fe997d}.cls-15{fill:#c4b78b}.cls-16{fill:#31302e}.cls-17{fill:#fff0cc}.cls-18{fill:#c7c795}.cls-19{fill:#ffebbd}.cls-20{fill:#3c8aa0}.cls-21{fill:#78cbc1}.cls-22,.cls-25{fill:#dbdbdb}.cls-23{fill:#c6c6c6}.cls-26{opacity:.15}.cls-27,.cls-34{fill:#f48fb1}.cls-28{fill:#f9f9f9}.cls-29{fill:#bd494a}.cls-30{fill:#891a2d}.cls-31{opacity:.3}.cls-32{fill:#7bc5df}.cls-33{fill:#f8b62d}.cls-35{fill:#bf946d}.cls-36{clip-path:url(#clip-path)}.cls-37{fill:#b5a26d}.cls-38{opacity:.6}</style><clipPath id="clip-path"><circle id="_剪裁路徑_" data-name="&lt;剪裁路徑&gt;" class="cls-1" cx="125" cy="162.18" r="125"/></clipPath></defs><title>插圖切圖</title><g id="_群組_" data-name="&lt;群組&gt;"><g id="_群組_2" data-name="&lt;群組&gt;"><circle id="_路徑_" data-name="&lt;路徑&gt;" class="cls-2" cx="125" cy="162.18" r="125"/></g><g id="_群組_3" data-name="&lt;群組&gt;" class="cls-3"><g id="_群組_4" data-name="&lt;群組&gt;"><path id="_矩形_" data-name="&lt;矩形&gt;" class="cls-4" transform="rotate(-8.42 88.758 194.202)" d="M87.72 191.81h2.01v4.83h-2.01z"/></g><g id="_群組_5" data-name="&lt;群組&gt;"><path id="_路徑_2" data-name="&lt;路徑&gt;" class="cls-5" d="M80.66 191.55a1.06 1.06 0 0 0 1.07 1.45l13.32-2a1.06 1.06 0 0 0 .61-1.69l-3.07-4.07-10.18 1.51z"/></g><g id="_群組_6" data-name="&lt;群組&gt;"><path id="_路徑_3" data-name="&lt;路徑&gt;" class="cls-6" d="M85.5 178.26l-3.08 8.51 10.18-1.51-5.41-7.18a1 1 0 0 0-1.69.18z"/></g><g id="_群組_7" data-name="&lt;群組&gt;"><path id="_路徑_4" data-name="&lt;路徑&gt;" class="cls-5" d="M81.32 184.28a.8.8 0 0 0 .83 1.09l10.3-1.52a.8.8 0 0 0 .48-1.28l-2.37-3.12-7.87 1.17z"/></g><g id="_群組_8" data-name="&lt;群組&gt;"><path id="_路徑_5" data-name="&lt;路徑&gt;" class="cls-6" d="M85.07 174.06l-2.39 6.55 7.87-1.17-4.18-5.53a.74.74 0 0 0-1.3.15z"/></g><g id="_群組_9" data-name="&lt;群組&gt;"><path id="_路徑_6" data-name="&lt;路徑&gt;" class="cls-7" d="M81.52 178.53l3.1-8.35a.61.61 0 0 1 1.07-.16l5.38 7.09a.66.66 0 0 1-.39 1.05l-8.48 1.26a.66.66 0 0 1-.68-.89z"/></g></g><g id="_群組_10" data-name="&lt;群組&gt;"><g id="_群組_11" data-name="&lt;群組&gt;"><path id="_路徑_7" data-name="&lt;路徑&gt;" class="cls-8" d="M125 287.18a125 125 0 0 0 113-71.51 311 311 0 0 0-225.9.22A125 125 0 0 0 125 287.18z"/></g></g><g id="_群組_12" data-name="&lt;群組&gt;" class="cls-9"><path id="_路徑_8" data-name="&lt;路徑&gt;" class="cls-10" d="M188.52 225.33H61.95l36.48-168h53.46l36.63 168z"/></g><g id="_群組_13" data-name="&lt;群組&gt;"><ellipse id="_路徑_9" data-name="&lt;路徑&gt;" class="cls-11" cx="125.34" cy="225.4" rx="63.28" ry="17.39"/></g><g id="_群組_14" data-name="&lt;群組&gt;"><ellipse id="_路徑_10" data-name="&lt;路徑&gt;" class="cls-12" cx="125.34" cy="225.4" rx="13.07" ry="3.59"/></g><g id="_群組_15" data-name="&lt;群組&gt;"><g id="_群組_16" data-name="&lt;群組&gt;"><path id="_路徑_11" data-name="&lt;路徑&gt;" class="cls-13" d="M125 0c-17.53 0-31.78 16.33-31.78 35.33h63.64C156.86 16.33 142.62 0 125 0z"/></g><g id="_群組_17" data-name="&lt;群組&gt;"><g id="_群組_18" data-name="&lt;群組&gt;"><circle id="_路徑_12" data-name="&lt;路徑&gt;" class="cls-14" cx="114.92" cy="40.48" r="3.89"/></g><g id="_群組_19" data-name="&lt;群組&gt;"><path id="_路徑_13" data-name="&lt;路徑&gt;" class="cls-15" d="M112.07 28.33H135c3 0 5.85 2.19 5.85 5.17v14.83h-11v.52a5.5 5.5 0 0 0-11 0v-.52h-12V33.51a5.07 5.07 0 0 1 5.22-5.18z"/></g><g id="_群組_20" data-name="&lt;群組&gt;"><path id="_路徑_14" data-name="&lt;路徑&gt;" class="cls-16" d="M125.59 28.33a7 7 0 0 1-13.55 0h13.55z"/></g><g id="_群組_21" data-name="&lt;群組&gt;"><circle id="_路徑_15" data-name="&lt;路徑&gt;" class="cls-16" cx="133.84" cy="35.19" r="2.21"/></g><g id="_群組_22" data-name="&lt;群組&gt;"><circle id="_路徑_16" data-name="&lt;路徑&gt;" class="cls-16" cx="125.89" cy="38.28" r="3.23"/></g><g id="_群組_23" data-name="&lt;群組&gt;"><g id="_群組_24" data-name="&lt;群組&gt;"><path id="_路徑_17" data-name="&lt;路徑&gt;" class="cls-17" d="M131.48 13.33c.81 1 .35 2.77.35 4.39V23a8 8 0 1 1-16 0v-5.3a7.6 7.6 0 0 1 1.54-4.39h14.1z"/></g><g id="_群組_25" data-name="&lt;群組&gt;"><g id="_群組_26" data-name="&lt;群組&gt;"><path id="_路徑_18" data-name="&lt;路徑&gt;" class="cls-18" d="M118 13.33a2.61 2.61 0 0 1 0 .41 3.7 3.7 0 1 1-7.4 0 2.34 2.34 0 0 1 0-.39h7.4z"/></g><g id="_群組_27" data-name="&lt;群組&gt;"><path id="_路徑_19" data-name="&lt;路徑&gt;" class="cls-18" d="M137.84 13.33a2.61 2.61 0 0 1 0 .41 3.7 3.7 0 1 1-7.4 0 2.34 2.34 0 0 1 0-.39h7.33z"/></g></g><g id="_群組_28" data-name="&lt;群組&gt;"><path id="_路徑_20" data-name="&lt;路徑&gt;" class="cls-16" d="M126.84 13.33v6.55a3 3 0 1 1-6 0v-6.55h6z"/></g><g id="_群組_29" data-name="&lt;群組&gt;"><path id="_路徑_21" data-name="&lt;路徑&gt;" class="cls-16" d="M119.4 13.33a5.33 5.33 0 0 1-2-4.23 5.43 5.43 0 0 1 .6-2.52 5.71 5.71 0 0 0-4.81 5.62 2.78 2.78 0 0 0 .14 1.14h6.06z"/></g><g id="_群組_30" data-name="&lt;群組&gt;"><path id="_路徑_22" data-name="&lt;路徑&gt;" class="cls-16" d="M128.55 13.33h6.06a2.5 2.5 0 0 0 .14-1.09 5.76 5.76 0 0 0-4.81-5.67 5.24 5.24 0 0 1 .63 2.48 5.43 5.43 0 0 1-2.02 4.28z"/></g></g></g><g id="_群組_31" data-name="&lt;群組&gt;"><circle id="_路徑_23" data-name="&lt;路徑&gt;" class="cls-19" cx="125.38" cy="62.02" r="5.68"/></g><g id="_群組_32" data-name="&lt;群組&gt;"><circle id="_路徑_24" data-name="&lt;路徑&gt;" class="cls-19" cx="108.5" cy="60.9" r="5.68"/></g><g id="_群組_33" data-name="&lt;群組&gt;"><circle id="_路徑_25" data-name="&lt;路徑&gt;" class="cls-19" cx="142.26" cy="60.9" r="5.68"/></g><g id="_群組_34" data-name="&lt;群組&gt;"><ellipse id="_路徑_26" data-name="&lt;路徑&gt;" class="cls-20" cx="125.3" cy="49.02" rx="34.78" ry="14.13"/></g><g id="_群組_35" data-name="&lt;群組&gt;"><rect id="_矩形_2" data-name="&lt;矩形&gt;" class="cls-21" x="81.84" y="35.33" width="86" height="21" rx="10.29" ry="10.29"/></g><g id="_群組_36" data-name="&lt;群組&gt;"><path id="_路徑_27" data-name="&lt;路徑&gt;" class="cls-20" d="M128.84 44.83a4.5 4.5 0 0 1-4.5 4.5 4.5 4.5 0 0 1-4.5-4.5 4.5 4.5 0 0 1 4.5-4.5 4.5 4.5 0 0 1 4.5 4.5z"/></g><g id="_群組_37" data-name="&lt;群組&gt;"><path id="_路徑_28" data-name="&lt;路徑&gt;" class="cls-20" d="M112.84 44.83a4.5 4.5 0 0 1-4.5 4.5 4.5 4.5 0 0 1-4.5-4.5 4.5 4.5 0 0 1 4.5-4.5 4.5 4.5 0 0 1 4.5 4.5z"/></g><g id="_群組_38" data-name="&lt;群組&gt;"><path id="_路徑_29" data-name="&lt;路徑&gt;" class="cls-20" d="M145.84 44.83a4.5 4.5 0 0 1-4.5 4.5 4.5 4.5 0 0 1-4.5-4.5 4.5 4.5 0 0 1 4.5-4.5 4.5 4.5 0 0 1 4.5 4.5z"/></g></g><g id="_群組_39" data-name="&lt;群組&gt;"><path id="_路徑_30" data-name="&lt;路徑&gt;" class="cls-22" d="M101 154.87a.75.75 0 0 1-.75-.75c0-6.31 1-10.44 3.05-12.26a3 3 0 0 1 2.17-.89.75.75 0 0 1-.14 1.49 1.47 1.47 0 0 0-1.12.59c-.92.89-2.47 3.52-2.47 11.06a.75.75 0 0 1-.74.76z"/></g><g id="_群組_40" data-name="&lt;群組&gt;"><path id="_路徑_31" data-name="&lt;路徑&gt;" class="cls-23" d="M111 180.94a.75.75 0 1 1 0-1.5 4.49 4.49 0 0 0 3.06-1 94 94 0 0 0 .58-9.69.75.75 0 0 1 1.5 0 95.31 95.31 0 0 1-.62 10.12.75.75 0 0 1-.16.38 5.68 5.68 0 0 1-4.36 1.69z"/></g><g id="_群組_41" data-name="&lt;群組&gt;"><path id="_路徑_32" data-name="&lt;路徑&gt;" class="cls-23" d="M138.4 180.94a5.68 5.68 0 0 1-4.36-1.71.75.75 0 0 1-.16-.38 95.16 95.16 0 0 1-.62-10.12.75.75 0 0 1 1.5 0 93.79 93.79 0 0 0 .58 9.69 4.48 4.48 0 0 0 3.06 1 .75.75 0 0 1 0 1.52z"/></g><g id="_群組_42" data-name="&lt;群組&gt;"><path id="_路徑_33" data-name="&lt;路徑&gt;" class="cls-22" d="M149.4 154.87a.75.75 0 0 1-.75-.75c0-7.55-1.55-10.17-2.47-11.06a1.75 1.75 0 0 0-1.12-.59.78.78 0 0 1-.79-.7.74.74 0 0 1 .65-.8 3 3 0 0 1 2.17.89c2 1.82 3.05 5.94 3.05 12.26a.75.75 0 0 1-.74.75z"/></g><g id="_群組_43" data-name="&lt;群組&gt;"><g id="_群組_44" data-name="&lt;群組&gt;"><path id="_路徑_34" data-name="&lt;路徑&gt;" class="cls-24" d="M142.38 172.33h-34.76c-1.66 0-3.78-1.68-3.78-3.34v-49.2c0-1.66 2.12-3.45 3.78-3.45h27.81l9.41 10.41V169c0 1.65-.84 3.33-2.46 3.33z"/></g><g id="_群組_45" data-name="&lt;群組&gt;"><path id="_路徑_35" data-name="&lt;路徑&gt;" class="cls-25" d="M138.43 126.33h7l-10.55-9.55v7c-.04 1.62 1.89 2.55 3.55 2.55z"/></g><g id="_群組_46" data-name="&lt;群組&gt;" class="cls-26"><circle id="_路徑_36" data-name="&lt;路徑&gt;" class="cls-27" cx="109.74" cy="125.97" r="1.26"/></g><g id="_群組_47" data-name="&lt;群組&gt;"><g id="_群組_48" data-name="&lt;群組&gt;"><rect id="_矩形_3" data-name="&lt;矩形&gt;" class="cls-28" x="107.84" y="121.33" width="23" height="2" rx=".88" ry=".88"/></g><g id="_群組_49" data-name="&lt;群組&gt;"><path id="_路徑_37" data-name="&lt;路徑&gt;" class="cls-28" d="M114.84 124.83a.5.5 0 0 1-.5.5h-3a.5.5 0 0 1-.5-.5.5.5 0 0 1 .5-.5h3a.5.5 0 0 1 .5.5z"/></g><g id="_群組_50" data-name="&lt;群組&gt;"><path id="_路徑_38" data-name="&lt;路徑&gt;" class="cls-28" d="M119.84 126.83a.5.5 0 0 1-.5.5h-8a.5.5 0 0 1-.5-.5.5.5 0 0 1 .5-.5h8a.5.5 0 0 1 .5.5z"/></g><g id="_群組_51" data-name="&lt;群組&gt;"><path id="_路徑_39" data-name="&lt;路徑&gt;" class="cls-28" d="M141.84 129.83a.5.5 0 0 1-.5.5h-33a.5.5 0 0 1-.5-.5.5.5 0 0 1 .5-.5h33a.5.5 0 0 1 .5.5z"/></g><g id="_群組_52" data-name="&lt;群組&gt;"><path id="_路徑_40" data-name="&lt;路徑&gt;" class="cls-28" d="M141.84 133.83a.5.5 0 0 1-.5.5h-33a.5.5 0 0 1-.5-.5.5.5 0 0 1 .5-.5h33a.5.5 0 0 1 .5.5z"/></g><g id="_群組_53" data-name="&lt;群組&gt;"><path id="_路徑_41" data-name="&lt;路徑&gt;" class="cls-28" d="M141.84 136.83a.5.5 0 0 1-.5.5h-33a.5.5 0 0 1-.5-.5.5.5 0 0 1 .5-.5h33a.5.5 0 0 1 .5.5z"/></g><g id="_群組_54" data-name="&lt;群組&gt;"><path id="_路徑_42" data-name="&lt;路徑&gt;" class="cls-28" d="M141.84 139.83a.5.5 0 0 1-.5.5h-33a.5.5 0 0 1-.5-.5.5.5 0 0 1 .5-.5h33a.5.5 0 0 1 .5.5z"/></g><g id="_群組_55" data-name="&lt;群組&gt;"><path id="_路徑_43" data-name="&lt;路徑&gt;" class="cls-28" d="M130.84 142.83a.5.5 0 0 1-.5.5h-22a.5.5 0 0 1-.5-.5.5.5 0 0 1 .5-.5h22a.5.5 0 0 1 .5.5z"/></g><g id="_群組_56" data-name="&lt;群組&gt;"><path id="_路徑_44" data-name="&lt;路徑&gt;" class="cls-28" d="M141.84 148.83a.5.5 0 0 1-.5.5h-33a.5.5 0 0 1-.5-.5.5.5 0 0 1 .5-.5h33a.5.5 0 0 1 .5.5z"/></g><g id="_群組_57" data-name="&lt;群組&gt;"><path id="_路徑_45" data-name="&lt;路徑&gt;" class="cls-28" d="M141.84 151.83a.5.5 0 0 1-.5.5h-33a.5.5 0 0 1-.5-.5.5.5 0 0 1 .5-.5h33a.5.5 0 0 1 .5.5z"/></g><g id="_群組_58" data-name="&lt;群組&gt;"><path id="_路徑_46" data-name="&lt;路徑&gt;" class="cls-28" d="M141.84 155.83a.5.5 0 0 1-.5.5h-33a.5.5 0 0 1-.5-.5.5.5 0 0 1 .5-.5h33a.5.5 0 0 1 .5.5z"/></g><g id="_群組_59" data-name="&lt;群組&gt;"><path id="_路徑_47" data-name="&lt;路徑&gt;" class="cls-28" d="M141.84 158.83a.5.5 0 0 1-.5.5h-33a.5.5 0 0 1-.5-.5.5.5 0 0 1 .5-.5h33a.5.5 0 0 1 .5.5z"/></g><g id="_群組_60" data-name="&lt;群組&gt;"><path id="_路徑_48" data-name="&lt;路徑&gt;" class="cls-28" d="M141.84 161.83a.5.5 0 0 1-.5.5h-33a.5.5 0 0 1-.5-.5.5.5 0 0 1 .5-.5h33a.5.5 0 0 1 .5.5z"/></g><g id="_群組_61" data-name="&lt;群組&gt;"><rect id="_矩形_4" data-name="&lt;矩形&gt;" class="cls-28" x="107.84" y="164.33" width="12" height="1" rx=".38" ry=".38"/></g></g></g><g id="_群組_62" data-name="&lt;群組&gt;"><path id="_路徑_49" data-name="&lt;路徑&gt;" class="cls-29" d="M133.24 141.49a8.07 8.07 0 0 0-16.14 0v.24a3 3 0 0 0 2.75 2.93h.11a1.26 1.26 0 0 0 1.09-.47l.12-.15a5.26 5.26 0 0 1 4-1.6 5.13 5.13 0 0 1 4.15 1.79l.06.09a.83.83 0 0 0 .65.38h.07c1.75-.15 3.14-1.2 3.14-3 .01-.04 0-.17 0-.21z"/></g><g id="_群組_63" data-name="&lt;群組&gt;"><g id="_群組_64" data-name="&lt;群組&gt;"><path id="_路徑_50" data-name="&lt;路徑&gt;" class="cls-30" d="M125.17 138.63a10.93 10.93 0 0 1 8 3.52 3 3 0 0 0 0-.43v-.23a8.07 8.07 0 0 0-16.14 0v.24a3.14 3.14 0 0 0 .05.42 10.93 10.93 0 0 1 8.09-3.52z"/></g></g><g id="_群組_65" data-name="&lt;群組&gt;" class="cls-31"><g id="_群組_66" data-name="&lt;群組&gt;"><g id="_群組_67" data-name="&lt;群組&gt;"><path id="_複合路徑_" data-name="&lt;複合路徑&gt;" class="cls-32" d="M75.62 165.67a3.46 3.46 0 1 1 3.46-3.46 3.47 3.47 0 0 1-3.46 3.46zm0-5.16a1.7 1.7 0 1 0 1.7 1.7 1.7 1.7 0 0 0-1.7-1.7z"/></g></g><g id="_群組_68" data-name="&lt;群組&gt;"><path id="_路徑_51" data-name="&lt;路徑&gt;" class="cls-33" d="M178 145.72v-.09a5.26 5.26 0 0 1 4.87 4.71 5.26 5.26 0 0 1 4.87-4.71 4.84 4.84 0 0 1-4.87-4.84 4.9 4.9 0 0 1-4.87 4.9"/></g><g id="_群組_69" data-name="&lt;群組&gt;"><path id="_路徑_52" data-name="&lt;路徑&gt;" class="cls-33" d="M173.11 76.32a4.87 4.87 0 0 1 4.89 4.83 4.88 4.88 0 0 1 4.87-4.83 4.87 4.87 0 0 1-4.87-4.91 4.87 4.87 0 0 1-4.87 4.87s-.02.03-.02.04z"/></g><g id="_群組_70" data-name="&lt;群組&gt;"><g id="_群組_71" data-name="&lt;群組&gt;"><path id="_複合路徑_2" data-name="&lt;複合路徑&gt;" class="cls-32" d="M214.85 107.12a2.89 2.89 0 1 1 2.89-2.89 2.89 2.89 0 0 1-2.89 2.89zm0-4a1.12 1.12 0 1 0 1.12 1.12 1.12 1.12 0 0 0-1.12-1.13z"/></g></g><g id="_群組_72" data-name="&lt;群組&gt;"><path id="_路徑_53" data-name="&lt;路徑&gt;" class="cls-34" d="M74.82 67.78l-1.69-1.69 1.69-1.69a1 1 0 0 0-1.35-1.35l-1.69 1.69-1.69-1.69a1 1 0 0 0-1.35 1.35l1.69 1.69-1.69 1.69a1 1 0 0 0 1.35 1.35l1.69-1.69 1.69 1.69a1 1 0 0 0 1.35-1.35z"/></g><g id="_群組_73" data-name="&lt;群組&gt;"><g id="_群組_74" data-name="&lt;群組&gt;"><path id="_路徑_54" data-name="&lt;路徑&gt;" class="cls-34" d="M8.38 142.83c0-.47.39-.5.86-.5h1.15c.47 0 .86 0 .86.5s-.39.5-.86.5H9.24c-.48 0-.86-.02-.86-.5z"/></g><g id="_群組_75" data-name="&lt;群組&gt;"><path id="_路徑_55" data-name="&lt;路徑&gt;" class="cls-34" d="M13 142.83c0-.47.39-.5.86-.5H15c.47 0 .86 0 .86.5s-.39.5-.86.5h-1.18c-.47 0-.82-.02-.82-.5z"/></g><g id="_群組_76" data-name="&lt;群組&gt;"><path id="_路徑_56" data-name="&lt;路徑&gt;" class="cls-34" d="M10.84 140a1 1 0 0 1 2 0v1.15a1 1 0 0 1-2 0V140z"/></g><g id="_群組_77" data-name="&lt;群組&gt;"><path id="_路徑_57" data-name="&lt;路徑&gt;" class="cls-34" d="M10.84 144.55a1 1 0 0 1 2 0v1.15a1 1 0 0 1-2 0v-1.15z"/></g></g><g id="_群組_78" data-name="&lt;群組&gt;"><g id="_群組_79" data-name="&lt;群組&gt;"><path id="_路徑_58" data-name="&lt;路徑&gt;" class="cls-34" d="M237.26 156.33a1 1 0 0 1 .86-1h1.15a1 1 0 0 1 0 2h-1.15a1 1 0 0 1-.86-1z"/></g><g id="_群組_80" data-name="&lt;群組&gt;"><path id="_路徑_59" data-name="&lt;路徑&gt;" class="cls-34" d="M241.85 156.33a1 1 0 0 1 .86-1h1.15a1 1 0 0 1 0 2h-1.15a1 1 0 0 1-.86-1z"/></g><g id="_群組_81" data-name="&lt;群組&gt;"><path id="_路徑_60" data-name="&lt;路徑&gt;" class="cls-34" d="M239.84 153.41a1 1 0 0 1 2 0v1.15a1 1 0 0 1-2 0v-1.15z"/></g><g id="_群組_82" data-name="&lt;群組&gt;"><path id="_路徑_61" data-name="&lt;路徑&gt;" class="cls-34" d="M239.84 158a1 1 0 0 1 2 0v1.15a1 1 0 0 1-2 0V158z"/></g></g><g id="_群組_83" data-name="&lt;群組&gt;"><path id="_路徑_62" data-name="&lt;路徑&gt;" class="cls-33" d="M43.66 112.94a4.87 4.87 0 0 1 4.87 4.83 4.88 4.88 0 0 1 4.87-4.83 4.87 4.87 0 0 1-4.87-4.94 4.87 4.87 0 0 1-4.87 4.87v.07z"/></g></g><g id="_群組_84" data-name="&lt;群組&gt;"><g id="_群組_85" data-name="&lt;群組&gt;"><path id="_矩形_5" data-name="&lt;矩形&gt;" class="cls-35" transform="rotate(-15.56 40.47 204.748)" d="M38.33 199.62h4.24v10.2h-4.24z"/></g><g id="_群組_86" data-name="&lt;群組&gt;"><path id="_路徑_63" data-name="&lt;路徑&gt;" class="cls-5" d="M22.84 201.24a2.25 2.25 0 0 0 2.63 2.76l27.41-7.63a2.25 2.25 0 0 0 .83-3.71l-7.5-7.73-21 5.84z"/></g><g id="_群組_87" data-name="&lt;群組&gt;"><path id="_路徑_64" data-name="&lt;路徑&gt;" class="cls-6" d="M29.5 172.1l-4.23 18.64 21-5.84L33 171.28a2 2 0 0 0-3.5.82z"/></g><g id="_群組_88" data-name="&lt;群組&gt;"><path id="_路徑_65" data-name="&lt;路徑&gt;" class="cls-5" d="M22.32 185.81a1.69 1.69 0 0 0 2 2.07L45.53 182a1.69 1.69 0 0 0 .66-2.82l-5.78-5.92-16.2 4.51z"/></g><g id="_群組_89" data-name="&lt;群組&gt;"><path id="_路徑_66" data-name="&lt;路徑&gt;" class="cls-6" d="M27.5 163.4l-3.29 14.35 16.2-4.51-10.21-10.51a1.57 1.57 0 0 0-2.7.67z"/></g><g id="_群組_90" data-name="&lt;群組&gt;"><path id="_路徑_67" data-name="&lt;路徑&gt;" class="cls-7" d="M21.22 173.69l4.3-18.31a1.29 1.29 0 0 1 2.21-.61l13.15 13.45a1.39 1.39 0 0 1-.54 2.31l-17.45 4.86a1.39 1.39 0 0 1-1.67-1.7z"/></g></g><g id="_群組_91" data-name="&lt;群組&gt;"><g id="_群組_92" data-name="&lt;群組&gt;"><path id="_矩形_6" data-name="&lt;矩形&gt;" class="cls-35" transform="rotate(14.28 208.522 203.06)" d="M206.77 198.84h3.51v8.45h-3.51z"/></g><g id="_群組_93" data-name="&lt;群組&gt;"><path id="_路徑_68" data-name="&lt;路徑&gt;" class="cls-5" d="M197.31 193.31a1.86 1.86 0 0 0 .76 3.06l22.85 5.82a1.86 1.86 0 0 0 2.13-2.32l-2.2-8.64-17.46-4.44z"/></g><g id="_群組_94" data-name="&lt;群組&gt;"><path id="_路徑_69" data-name="&lt;路徑&gt;" class="cls-6" d="M214.1 175.11l-10.73 11.65 17.46 4.44L217 176a1.68 1.68 0 0 0-2.9-.89z"/></g><g id="_群組_95" data-name="&lt;群組&gt;"><path id="_路徑_70" data-name="&lt;路徑&gt;" class="cls-5" d="M203.3 182a1.4 1.4 0 0 0 .6 2.32l17.66 4.5a1.4 1.4 0 0 0 1.63-1.75l-1.71-6.64L208 177z"/></g><g id="_群組_96" data-name="&lt;群組&gt;"><path id="_路徑_71" data-name="&lt;路徑&gt;" class="cls-6" d="M216.26 168l-8.26 9 13.5 3.44-3-11.76a1.3 1.3 0 0 0-2.24-.68z"/></g><g id="_群組_97" data-name="&lt;群組&gt;"><path id="_路徑_72" data-name="&lt;路徑&gt;" class="cls-7" d="M207.5 172.84l10.64-11.39a1.07 1.07 0 0 1 1.84.47l3.9 15.09a1.15 1.15 0 0 1-1.34 1.44l-14.54-3.7a1.15 1.15 0 0 1-.5-1.91z"/></g></g><g class="cls-36" id="_剪裁群組_" data-name="&lt;剪裁群組&gt;"><g id="_群組_98" data-name="&lt;群組&gt;"><g id="_群組_99" data-name="&lt;群組&gt;"><circle id="_路徑_73" data-name="&lt;路徑&gt;" class="cls-14" cx="217.55" cy="247.85" r="3.36"/></g><g id="_群組_100" data-name="&lt;群組&gt;"><path id="_路徑_74" data-name="&lt;路徑&gt;" class="cls-15" d="M235.84 243.33h-1v-2.78c0-4.22-1.76-4.22-2.47-4.22h-7.53v-1h7.53c1.77 0 3.47.91 3.47 5.22v2.78z"/></g><g id="_群組_101" data-name="&lt;群組&gt;"><g id="_群組_102" data-name="&lt;群組&gt;"><path id="_路徑_75" data-name="&lt;路徑&gt;" class="cls-16" d="M200.86 229a5.06 5.06 0 0 1-4.53-7.34 5.07 5.07 0 1 0 5.44 7.25 5.08 5.08 0 0 1-.91.09z"/></g><g id="_群組_103" data-name="&lt;群組&gt;"><path id="_路徑_76" data-name="&lt;路徑&gt;" class="cls-16" d="M202.13 229a5.06 5.06 0 0 0 4.53-7.34 5.07 5.07 0 1 1-5.44 7.25 5.08 5.08 0 0 0 .91.09z"/></g></g><g id="_群組_104" data-name="&lt;群組&gt;"><path id="_矩形_7" data-name="&lt;矩形&gt;" class="cls-16" d="M200.89 252.33h7.17a1.78 1.78 0 0 1 1.78 1.78v3.22h-10v-4a1 1 0 0 1 1.05-1z" transform="rotate(180 204.835 254.835)"/></g><g id="_群組_105" data-name="&lt;群組&gt;"><path id="_矩形_8" data-name="&lt;矩形&gt;" class="cls-16" d="M219.89 252.33h7.17a1.77 1.77 0 0 1 1.77 1.77v3.23h-10v-3.94a1.06 1.06 0 0 1 1.06-1.06z" transform="rotate(180 223.835 254.835)"/></g><g id="_群組_106" data-name="&lt;群組&gt;"><g id="_群組_107" data-name="&lt;群組&gt;"><path id="_路徑_77" data-name="&lt;路徑&gt;" class="cls-18" d="M205.81 227.33a3.29 3.29 0 0 0 0 .41 3.2 3.2 0 1 0 6.39 0 2.74 2.74 0 0 0 0-.38h-6.33z"/></g><g id="_群組_108" data-name="&lt;群組&gt;"><path id="_路徑_78" data-name="&lt;路徑&gt;" class="cls-18" d="M189.53 227.33a3.29 3.29 0 0 0 0 .41 3.2 3.2 0 1 0 6.39 0 2.74 2.74 0 0 0 0-.38h-6.33z"/></g></g><g id="_群組_109" data-name="&lt;群組&gt;"><path id="_路徑_79" data-name="&lt;路徑&gt;" class="cls-37" d="M195 227.33a7.22 7.22 0 0 0-1.19 3.91v4.59a7 7 0 1 0 14 0v-4.59c0-1.4.09-2.91-.61-3.91H195z"/></g><g id="_群組_110" data-name="&lt;群組&gt;"><path id="_矩形_9" data-name="&lt;矩形&gt;" class="cls-16" d="M233.84 243.33h4v6h-4z"/></g><g id="_群組_111" data-name="&lt;群組&gt;"><path id="_路徑_80" data-name="&lt;路徑&gt;" class="cls-15" d="M225.13 234.33h-19.81c-2.58 0-5.48 1.83-5.48 4.41v13.59h10V252a4.5 4.5 0 1 1 9 0v.32h10v-13.57c0-2.58-1.13-4.42-3.71-4.42z"/></g><g id="_群組_112" data-name="&lt;群組&gt;"><path id="_路徑_81" data-name="&lt;路徑&gt;" class="cls-16" d="M211.39 234.33c.64 2 3 4.61 5.86 4.61s5.21-2.61 5.86-4.61h-11.72z"/></g><g id="_群組_113" data-name="&lt;群組&gt;"><circle id="_路徑_82" data-name="&lt;路徑&gt;" class="cls-16" cx="212.45" cy="242.09" r="1.91"/></g><g id="_群組_114" data-name="&lt;群組&gt;"><circle id="_路徑_83" data-name="&lt;路徑&gt;" class="cls-16" cx="222.4" cy="243.9" r="2.79"/></g></g><g id="_群組_115" data-name="&lt;群組&gt;"><g id="_群組_116" data-name="&lt;群組&gt;"><circle id="_路徑_84" data-name="&lt;路徑&gt;" class="cls-14" cx="163.71" cy="278.94" r="4.02"/></g><g id="_群組_117" data-name="&lt;群組&gt;"><path id="_路徑_85" data-name="&lt;路徑&gt;" class="cls-15" d="M185.84 273.33h-1v-3.1c0-2.23-.26-4.9-3.42-4.9h-8.58v-1h8.58c3.07 0 4.42 2.15 4.42 5.9v3.1z"/></g><g id="_群組_118" data-name="&lt;群組&gt;"><g id="_群組_119" data-name="&lt;群組&gt;"><path id="_路徑_86" data-name="&lt;路徑&gt;" class="cls-16" d="M142.58 256.46a6 6 0 0 1-5.41-8.77 6.05 6.05 0 1 0 6.5 8.66 6.07 6.07 0 0 1-1.09.11z"/></g><g id="_群組_120" data-name="&lt;群組&gt;"><path id="_路徑_87" data-name="&lt;路徑&gt;" class="cls-16" d="M144.09 256.46a6 6 0 0 0 5.41-8.77 6.05 6.05 0 1 1-6.5 8.66 6.07 6.07 0 0 0 1.09.11z"/></g></g><g id="_群組_121" data-name="&lt;群組&gt;"><path id="_矩形_10" data-name="&lt;矩形&gt;" class="cls-16" d="M144.22 284.33H153a1.85 1.85 0 0 1 1.85 1.85v4.15h-12v-4.61a1.39 1.39 0 0 1 1.37-1.39z" transform="rotate(180 148.835 287.335)"/></g><g id="_群組_122" data-name="&lt;群組&gt;"><path id="_矩形_11" data-name="&lt;矩形&gt;" class="cls-16" d="M166.69 284.33H175a1.85 1.85 0 0 1 1.85 1.85v4.15h-12v-4.15a1.85 1.85 0 0 1 1.84-1.85z" transform="rotate(180 170.835 287.335)"/></g><g id="_群組_123" data-name="&lt;群組&gt;"><g id="_群組_124" data-name="&lt;群組&gt;"><path id="_路徑_88" data-name="&lt;路徑&gt;" class="cls-18" d="M149.69 255.33s0-.08 0 0a3.69 3.69 0 0 0 3.82 3.66 3.63 3.63 0 0 0 3.82-3.58v-.12h-7.57z"/></g><g id="_群組_125" data-name="&lt;群組&gt;"><path id="_路徑_89" data-name="&lt;路徑&gt;" class="cls-18" d="M130.24 255.33s0-.08 0 0A3.69 3.69 0 0 0 134 259a3.63 3.63 0 0 0 3.82-3.58v-.12h-7.57z"/></g></g><g id="_群組_126" data-name="&lt;群組&gt;"><path id="_路徑_90" data-name="&lt;路徑&gt;" class="cls-37" d="M136.8 255.33c-.84 1-2 2.1-2 3.77v5.48a8.5 8.5 0 1 0 17 0v-5.48c0-1.68.38-2.77-.46-3.77H136.8z"/></g><g id="_群組_127" data-name="&lt;群組&gt;"><path id="_矩形_12" data-name="&lt;矩形&gt;" class="cls-16" d="M182.84 273.33h5v8h-5z"/></g><g id="_群組_128" data-name="&lt;群組&gt;"><path id="_路徑_91" data-name="&lt;路徑&gt;" class="cls-15" d="M172.77 262.33H149.1c-3.08 0-6.26 2.65-6.26 5.73v16.27h12v-.41c0-3.08 1.92-5.59 5-5.59s5 2.51 5 5.59v.41h12v-16.26c0-3.07-.99-5.74-4.07-5.74z"/></g><g id="_群組_129" data-name="&lt;群組&gt;"><path id="_路徑_92" data-name="&lt;路徑&gt;" class="cls-16" d="M156.35 262.33a7.2 7.2 0 0 0 14 0h-14z"/></g><g id="_群組_130" data-name="&lt;群組&gt;"><circle id="_路徑_93" data-name="&lt;路徑&gt;" class="cls-16" cx="157.62" cy="272.07" r="2.28"/></g><g id="_群組_131" data-name="&lt;群組&gt;"><circle id="_路徑_94" data-name="&lt;路徑&gt;" class="cls-16" cx="169.51" cy="274.23" r="3.33"/></g></g><g id="_群組_132" data-name="&lt;群組&gt;"><g id="_群組_133" data-name="&lt;群組&gt;"><circle id="_路徑_95" data-name="&lt;路徑&gt;" class="cls-14" cx="63.86" cy="265.61" r="3.72"/></g><g id="_群組_134" data-name="&lt;群組&gt;"><path id="_路徑_96" data-name="&lt;路徑&gt;" class="cls-15" d="M43.84 260.33h-1v-2.79c0-3.51 1.79-5.21 4.64-5.21h7.36v1h-7.36c-2.27 0-3.64 1.26-3.64 4.21v2.79z"/></g><g id="_群組_135" data-name="&lt;群組&gt;"><g id="_群組_136" data-name="&lt;群組&gt;"><path id="_路徑_97" data-name="&lt;路徑&gt;" class="cls-16" d="M83.42 244.8a5.6 5.6 0 0 0 5-8.11 5.6 5.6 0 1 1-6 8 5.61 5.61 0 0 0 1 .11z"/></g><g id="_群組_137" data-name="&lt;群組&gt;"><path id="_路徑_98" data-name="&lt;路徑&gt;" class="cls-16" d="M82 244.8a5.6 5.6 0 0 1-5-8.11 5.6 5.6 0 1 0 6 8 5.61 5.61 0 0 1-1 .11z"/></g></g><g id="_群組_138" data-name="&lt;群組&gt;"><path id="_矩形_13" data-name="&lt;矩形&gt;" class="cls-16" d="M71.84 270.33h11v3.87a1.13 1.13 0 0 1-1.13 1.13h-7.78a2.09 2.09 0 0 1-2.09-2.09v-2.91z"/></g><g id="_群組_139" data-name="&lt;群組&gt;"><path id="_矩形_14" data-name="&lt;矩形&gt;" class="cls-16" d="M50.84 270.33h11v3.87a1.13 1.13 0 0 1-1.13 1.13h-7.95a1.92 1.92 0 0 1-1.92-1.92v-3.08z"/></g><g id="_群組_140" data-name="&lt;群組&gt;"><g id="_群組_141" data-name="&lt;群組&gt;"><path id="_路徑_99" data-name="&lt;路徑&gt;" class="cls-18" d="M76.84 243.33a.78.78 0 0 1 0 .25 3.54 3.54 0 0 1-7.07 0 1 1 0 0 1 0-.27h7z"/></g><g id="_群組_142" data-name="&lt;群組&gt;"><path id="_路徑_100" data-name="&lt;路徑&gt;" class="cls-18" d="M94.84 243.33a.78.78 0 0 1 0 .25 3.54 3.54 0 0 1-7.07 0 1 1 0 0 1 0-.27h7z"/></g></g><g id="_群組_143" data-name="&lt;群組&gt;"><path id="_路徑_101" data-name="&lt;路徑&gt;" class="cls-37" d="M88.76 243.33a6.32 6.32 0 0 1 1.08 3.92v5.07a8 8 0 0 1-16 0v-5.07a6.5 6.5 0 0 1 1.44-3.92h13.48z"/></g><g id="_群組_144" data-name="&lt;群組&gt;"><path id="_矩形_15" data-name="&lt;矩形&gt;" class="cls-16" transform="rotate(180 43.335 263.835)" d="M40.84 260.33h5v7h-5z"/></g><g id="_群組_145" data-name="&lt;群組&gt;"><path id="_路徑_102" data-name="&lt;路徑&gt;" class="cls-15" d="M55.48 250.33h21.91a5.46 5.46 0 0 1 5.45 5.21v14.79h-11v-.11a5 5 0 1 0-10 0v.11h-11v-14.78c0-2.85 1.79-5.22 4.64-5.22z"/></g><g id="_群組_146" data-name="&lt;群組&gt;"><path id="_路徑_103" data-name="&lt;路徑&gt;" class="cls-16" d="M70.68 250.33a6.67 6.67 0 0 1-13 0h13z"/></g><g id="_群組_147" data-name="&lt;群組&gt;"><circle id="_路徑_104" data-name="&lt;路徑&gt;" class="cls-16" cx="69.5" cy="259.25" r="2.11"/></g><g id="_群組_148" data-name="&lt;群組&gt;"><circle id="_路徑_105" data-name="&lt;路徑&gt;" class="cls-16" cx="58.5" cy="261.25" r="3.09"/></g></g><g id="_群組_149" data-name="&lt;群組&gt;"><g id="_群組_150" data-name="&lt;群組&gt;"><circle id="_路徑_106" data-name="&lt;路徑&gt;" class="cls-14" cx="30.82" cy="240.88" r="2.89"/></g><g id="_群組_151" data-name="&lt;群組&gt;"><path id="_路徑_107" data-name="&lt;路徑&gt;" class="cls-15" d="M14.84 236.33h-1v-1.71a4.1 4.1 0 0 1 4.27-4.29h5.73v1h-5.73a3.24 3.24 0 0 0-3.27 3.29v1.71z"/></g><g id="_群組_152" data-name="&lt;群組&gt;"><g id="_群組_153" data-name="&lt;群組&gt;"><path id="_路徑_108" data-name="&lt;路徑&gt;" class="cls-16" d="M46 224.74a4.34 4.34 0 0 0 3.88-6.29 4.35 4.35 0 1 1-4.66 6.22 4.36 4.36 0 0 0 .78.07z"/></g><g id="_群組_154" data-name="&lt;群組&gt;"><path id="_路徑_109" data-name="&lt;路徑&gt;" class="cls-16" d="M44.9 224.74a4.34 4.34 0 0 1-3.9-6.3 4.35 4.35 0 1 0 4.66 6.22 4.36 4.36 0 0 1-.76.08z"/></g></g><g id="_群組_155" data-name="&lt;群組&gt;"><path id="_矩形_16" data-name="&lt;矩形&gt;" class="cls-16" d="M36.84 244.33h9v3.05a.95.95 0 0 1-.95.95h-6.44a1.61 1.61 0 0 1-1.61-1.61v-2.39z"/></g><g id="_群組_156" data-name="&lt;群組&gt;"><path id="_矩形_17" data-name="&lt;矩形&gt;" class="cls-16" d="M20.84 244.33h8v3.12a.88.88 0 0 1-.88.88h-5.57a1.55 1.55 0 0 1-1.55-1.55v-2.45z"/></g><g id="_群組_157" data-name="&lt;群組&gt;"><g id="_群組_158" data-name="&lt;群組&gt;"><path id="_路徑_110" data-name="&lt;路徑&gt;" class="cls-18" d="M40.88 223.33a2.33 2.33 0 0 1 0 .33 2.74 2.74 0 1 1-5.48 0 2 2 0 0 1 0-.31h5.43z"/></g><g id="_群組_159" data-name="&lt;群組&gt;"><path id="_路徑_111" data-name="&lt;路徑&gt;" class="cls-18" d="M54.85 223.33a2.33 2.33 0 0 1 0 .33 2.74 2.74 0 1 1-5.48 0 2 2 0 0 1 0-.31h5.43z"/></g></g><g id="_群組_160" data-name="&lt;群組&gt;"><path id="_路徑_112" data-name="&lt;路徑&gt;" class="cls-37" d="M50.13 223.33a6.15 6.15 0 0 1 .7 3.3v3.93a6 6 0 1 1-12 0v-3.93a6.24 6.24 0 0 1 .83-3.3h10.47z"/></g><g id="_群組_161" data-name="&lt;群組&gt;"><path id="_矩形_18" data-name="&lt;矩形&gt;" class="cls-16" transform="rotate(180 14.835 239.835)" d="M12.84 237.33h4v5h-4z"/></g><g id="_群組_162" data-name="&lt;群組&gt;"><path id="_路徑_113" data-name="&lt;路徑&gt;" class="cls-15" d="M24.31 229.33h17c2.21 0 4.53 1.52 4.53 3.74v11.26h-9v.12a4 4 0 1 0-8 0v-.12h-8v-11.26c0-2.21 1.26-3.74 3.47-3.74z"/></g><g id="_群組_163" data-name="&lt;群組&gt;"><path id="_路徑_114" data-name="&lt;路徑&gt;" class="cls-16" d="M36.1 229.33a5.49 5.49 0 0 1-5 4 5.49 5.49 0 0 1-5-4h10z"/></g><g id="_群組_164" data-name="&lt;群組&gt;"><circle id="_路徑_115" data-name="&lt;路徑&gt;" class="cls-16" cx="35.19" cy="235.94" r="1.64"/></g><g id="_群組_165" data-name="&lt;群組&gt;"><circle id="_路徑_116" data-name="&lt;路徑&gt;" class="cls-16" cx="26.65" cy="237.49" r="2.39"/></g></g></g><g id="_群組_166" data-name="&lt;群組&gt;" class="cls-38"><path id="_路徑_117" data-name="&lt;路徑&gt;" class="cls-10" d="M104.08 21.05a2 2 0 0 1-1.8-2.87c.2-.4 4.93-9.94 13.95-12.28a2 2 0 1 1 1 3.87c-7.25 1.88-11.31 10.07-11.35 10.16a2 2 0 0 1-1.8 1.12z"/></g><g id="_群組_167" data-name="&lt;群組&gt;" class="cls-38"><path id="_路徑_118" data-name="&lt;路徑&gt;" class="cls-10" d="M100.39 30.37h-.3a2 2 0 0 1-1.68-2.27 21.94 21.94 0 0 1 .73-3.47 2 2 0 0 1 3.79 1.27 20.2 20.2 0 0 0-.57 2.79 2 2 0 0 1-1.97 1.68z"/></g></g></svg>