<svg width="48" height="48" viewBox="0 0 48 48" xmlns="http://www.w3.org/2000/svg"><title>ic_like_bd494a</title><path d="M15.29 10.95c-1.685 0-3.27.658-4.462 1.853L8.796 14.84c-2.464 2.47-2.464 6.49 0 8.96L23.66 38.71a.478.478 0 0 0 .681 0l14.864-14.907c2.463-2.472 2.463-6.49 0-8.961l-2.032-2.038a6.266 6.266 0 0 0-4.463-1.854 6.269 6.269 0 0 0-4.464 1.854l-3.555 3.567a1.005 1.005 0 0 1-1.381 0l-3.556-3.567a6.266 6.266 0 0 0-4.464-1.854M24 40.8c-.65 0-1.261-.254-1.72-.715L7.416 25.178c-3.221-3.23-3.221-8.484 0-11.714l2.032-2.037A8.193 8.193 0 0 1 15.29 9c2.209 0 4.284.862 5.844 2.427L24 14.3l2.865-2.874A8.197 8.197 0 0 1 32.71 9c2.207 0 4.283.862 5.843 2.427l2.032 2.037c3.22 3.23 3.22 8.484 0 11.714L25.721 40.085a2.414 2.414 0 0 1-1.72.715" fill="#BD494A" fill-rule="evenodd"/></svg>