<svg id="圖層_1" data-name="圖層 1" xmlns="http://www.w3.org/2000/svg" viewBox="0 0 120 120"><defs><style>.cls-1{fill:#fff}.cls-2{mask:url(#mask)}.cls-3{fill:#595959}.cls-4{fill:none;stroke:#595959;stroke-width:10px}</style><mask id="mask" x="-5" y="-5" width="130" height="130" maskUnits="userSpaceOnUse"><g id="mask-2"><circle id="path-1" class="cls-1" cx="60" cy="60" r="60"/></g></mask></defs><title>Group 2</title><g class="cls-2" id="Page-1"><g id="Group-2"><g id="Group"><path id="Fill-3" class="cls-3" d="M89.3 55.4L64.91 32a7 7 0 0 0-9.7 0L30.82 55.4a2.61 2.61 0 0 0 0 3.81 2.93 2.93 0 0 0 4 0l24.39-23.45a1.79 1.79 0 0 1 2 0L85.5 59.21a2.86 2.86 0 0 0 4-.4 2.7 2.7 0 0 0-.2-3.41"/><path id="Rectangle" class="cls-3" d="M60 30a3 3 0 0 1 3 3v54a3 3 0 0 1-3 3 3 3 0 0 1-3-3V33a3 3 0 0 1 3-3z"/></g><g id="Oval"><circle id="path-1-2" data-name="path-1" class="cls-4" cx="60" cy="60" r="60"/></g></g></g></svg>